HIERARCHY
ROOT ui
{
	 OFFSET 0 0 0
	 CHANNELS 3 XPosition YPosition Z Position
	 EndSite
	 {
	 OFFSET 0 -1 0
	 }
}
ROOT li
{
	 OFFSET 0 0 0
	 CHANNELS 3 XPosition YPosition Z Position
	 EndSite
	 {
	 OFFSET 0 -1 0
	 }
}
ROOT ul
{
	 OFFSET 0 0 0
	 CHANNELS 3 XPosition YPosition Z Position
	 EndSite
	 {
	 OFFSET 0 -1 0
	 }
}
ROOT ll
{
	 OFFSET 0 0 0
	 CHANNELS 3 XPosition YPosition Z Position
	 EndSite
	 {
	 OFFSET 0 -1 0
	 }
}
ROOT tt
{
	 OFFSET 0 0 0
	 CHANNELS 3 XPosition YPosition Z Position
	 EndSite
	 {
	 OFFSET 0 -1 0
	 }
}
ROOT tb
{
	 OFFSET 0 0 0
	 CHANNELS 3 XPosition YPosition Z Position
	 EndSite
	 {
	 OFFSET 0 -1 0
	 }
}
ROOT td
{
	 OFFSET 0 0 0
	 CHANNELS 3 XPosition YPosition Z Position
	 EndSite
	 {
	 OFFSET 0 -1 0
	 }
}
ROOT v
{
	 OFFSET 0 0 0
	 CHANNELS 3 XPosition YPosition Z Position
	 EndSite
	 {
	 OFFSET 0 -1 0
	 }
}
ROOT bn
{
	 OFFSET 0 0 0
	 CHANNELS 3 XPosition YPosition Z Position
	 EndSite
	 {
	 OFFSET 0 -1 0
	 }
}
MOTION
Frames: 19
Frame Time: 0.002
0.033970439910888675	-0.0011470240354537963	0		0.5663184814453125	-2.6929345703125	0		-0.8950556640625	0.3196371459960938	0		-0.12895838928222655	-3.397989013671875	0		1.5069132080078125	-1.465707275390625	0		2.631246826171875	-0.4454220886230469	0		3.94265234375	0.4518787536621094	0		5.96387353515625	0.5758173217773438	0		-0.133902587890625	5.93126416015625	0		
-0.04929058837890625	0.005957139015197754	0		0.6149332885742187	-2.70388720703125	0		-0.8945659790039062	0.31136431884765625	0		-0.15690049743652343	-3.3827646484375	0		1.5153084716796874	-1.485975341796875	0		2.627825927734375	-0.4504415588378906	0		3.9308515625	0.42605926513671877	0		5.96347607421875	0.5759297485351562	0		-0.13360523986816406	5.93003173828125	0		
0.02418680191040039	-3.868359923362732E-4	0		0.5846275634765625	-2.7045576171875	0		-0.9049994506835938	0.31229983520507815	0		-0.14939630126953124	-3.39807275390625	0		1.5328704833984375	-1.491355224609375	0		2.626162841796875	-0.4664626159667969	0		3.943983642578125	0.39987075805664063	0		5.9498876953125	0.5682703857421875	0		-0.1494879608154297	5.9210869140625	0		
0.028624616622924804	-0.005606923103332519	0		0.6071640014648437	-2.712032958984375	0		-0.8705020141601563	0.3115622253417969	0		-0.1389030303955078	-3.41039453125	0		1.509447509765625	-1.4920618896484374	0		2.61856201171875	-0.47536636352539063	0		3.94415087890625	0.3789072265625	0		5.94937646484375	0.5684180908203125	0		-0.30350885009765627	5.9063427734375	0		
-0.053784248352050784	0.0015654959678649903	0		0.5657608642578125	-2.7124765625	0		-0.8911206665039062	0.3057245178222656	0		-0.1382332458496094	-3.40852978515625	0		1.5726324462890624	-1.5161080322265625	0		2.678639404296875	-0.5033155212402344	0		3.952400390625	0.364830322265625	0		5.9668203125	0.5672877807617187	0		-0.3023321838378906	5.90318505859375	0		
0.03164848518371582	-0.0018651930093765258	0		0.6202722778320312	-2.717398193359375	0		-0.8916580810546875	0.3056051330566406	0		-0.13557879638671874	-3.4056669921875	0		1.5662139892578124	-1.5130374755859375	0		2.663307373046875	-0.49206210327148436	0		3.957547119140625	0.3448091125488281	0		5.96214794921875	0.559500244140625	0		-0.13665553283691406	5.929490234375	0		
0.031129261016845704	-0.001921280026435852	0		0.5877846069335938	-2.72093505859375	0		-0.866175048828125	0.30611276245117186	0		-0.08122583770751954	-3.421584716796875	0		1.6154891357421874	-1.5298206787109374	0		2.668429443359375	-0.5161216430664063	0		3.96651611328125	0.3127310791015625	0		5.956486328125	0.5517197265625	0		-0.28583694458007813	5.9007412109375	0		
0.025695045471191405	0.0021261889934539794	0		0.610248291015625	-2.728307373046875	0		-0.9067378540039063	0.3026822509765625	0		-0.14656146240234375	-3.41660595703125	0		1.6150328369140625	-1.529808349609375	0		2.67382080078125	-0.524173583984375	0		3.97479150390625	0.29866781616210936	0		5.95597412109375	0.5518480834960937	0		-0.1531652374267578	5.92062890625	0		
0.021183761596679687	-8.158900141716003E-4	0		0.5937457275390625	-2.734051025390625	0		-0.8662915649414062	0.29702215576171875	0		-0.08713738250732422	-3.4285458984375	0		1.63319140625	-1.556073974609375	0		2.711972412109375	-0.5497294311523437	0		3.96879248046875	0.26482305908203124	0		5.9474990234375	0.5520849609375	0		-0.28707330322265623	5.90069189453125	0		
0.020754243850708006	-7.960169911384583E-4	0		0.5913192138671876	-2.73599267578125	0		-0.9017050170898437	0.2985747985839844	0		-0.16643728637695313	-3.42230029296875	0		1.634827392578125	-1.5530655517578125	0		2.708736572265625	-0.537631103515625	0		3.993232177734375	0.2565042114257812	0		5.95506201171875	0.5520537719726563	0		-0.28757577514648436	5.9007080078125	0		
0.024404062271118163	0.002185142993927002	0		0.5949979248046875	-2.7320087890625	0		-0.8630609130859375	0.30100775146484376	0		-0.085857666015625	-3.425515625	0		1.661295654296875	-1.562432373046875	0		2.734935791015625	-0.5639906005859375	0		4.011506103515625	0.23527468872070312	0		5.9466640625	0.5522507934570312	0		-0.2880009765625	5.90075	0		
0.019987010955810548	-6.857450008392334E-4	0		0.5895130615234375	-2.738864990234375	0		-0.9115963134765624	0.29082330322265626	0		-0.15016595458984375	-3.420454833984375	0		1.66092138671875	-1.562369140625	0		2.777480712890625	-0.56959716796875	0		4.020699462890625	0.20718089294433595	0		5.95016943359375	0.5442437133789062	0		-0.15503370666503907	5.920748046875	0		
0.028611347198486327	-0.0017368810176849364	0		0.5871001586914063	-2.740749755859375	0		-0.8769570922851563	0.2903757019042969	0		-0.09070090484619141	-3.43029638671875	0		1.6853597412109376	-1.5746815185546874	0		2.756808349609375	-0.5892183837890625	0		4.02523291015625	0.2001590118408203	0		5.94181591796875	0.5444068603515625	0		-0.1553429412841797	5.92083837890625	0		
-0.06075862503051758	-0.0012422499656677246	0		0.5846652221679688	-2.742616455078125	0		-0.9123139038085938	0.2910428771972656	0		-0.15401377868652344	-3.42320556640625	0		1.698737060546875	-1.589811279296875	0		2.77649462890625	-0.5854590454101563	0		4.05152490234375	0.1777945556640625	0		5.94631787109375	0.5353558959960938	0		-0.28798150634765624	5.89900732421875	0		
0.018872636795043946	-3.568010032176971E-4	0		0.6059691772460938	-2.758838134765625	0		-0.90777685546875	0.2861143493652344	0		-0.1385511474609375	-3.4283203125	0		1.709283203125	-1.5918851318359375	0		2.811621337890625	-0.6159401245117188	0		4.05788818359375	0.161738525390625	0		5.94206298828125	0.5434310302734375	0		-0.27211727905273436	5.9078935546875	0		
-0.04650351333618164	0.003807739019393921	0		0.599673828125	-2.74560986328125	0		-0.8931557006835937	0.28905343627929686	0		-0.14786262512207032	-3.41502685546875	0		1.74980810546875	-1.5924158935546875	0		2.83239111328125	-0.6021876831054688	0		4.086332763671875	0.15333804321289063	0		5.94964501953125	0.543310791015625	0		-0.2885409240722656	5.89930224609375	0		
0.022005043029785155	0.0029013099670410158	0		0.6449188232421875	-2.758173828125	0		-0.8767420043945312	0.2819850158691406	0		-0.15045901489257812	-3.4158203125	0		1.754106689453125	-1.6033719482421875	0		2.81040869140625	-0.6327659301757812	0		4.0963994140625	0.124223388671875	0		5.94091259765625	0.5264382934570313	0		-0.1555273132324219	5.9193994140625	0		
-0.051576259613037106	0.0012340129613876343	0		0.5913578491210938	-2.7531748046875	0		-0.90733544921875	0.27867257690429686	0		-0.1511098175048828	-3.415626220703125	0		1.796288330078125	-1.617909423828125	0		2.84869970703125	-0.6422745361328125	0		4.1015302734375	0.10319268035888672	0		5.944259765625	0.5183792724609375	0		-0.1710392608642578	5.909830078125	0		
0.02172804641723633	-0.004718570232391357	0		0.6493368530273438	-2.773911376953125	0		-0.876142333984375	0.26540875244140627	0		-0.15183168029785157	-3.415414306640625	0		1.803499755859375	-1.6258870849609375	0		2.85088134765625	-0.6542083740234375	0		4.11887646484375	0.09998062133789062	0		5.939794921875	0.5264498291015625	0		-0.17046644592285157	5.90902685546875	0		
